# xmcd CD database file
#
# Track frame offsets:
#	150
#	2116
#	20887
#	39019
#	56106
#	73412
#	77481
#	96594
#	120318
#	139615
#	162141
#	181233
#
# Disc length: 2608 seconds
#
# Revision: 0
# Processed by: cddbd v1.5.1PL0 Copyright (c) Steve Scherf et al.
# Submitted via: CDex 1.51
#
DISCID=9a0a2e0c
DTITLE=Dragons Of Edin - Sediments
DYEAR=2004
DGENRE=Hip Hop
TTITLE0=Draft
TTITLE1=Hammock
TTITLE2=Dynamicron
TTITLE3=Solidified
TTITLE4=Recluse
TTITLE5=Inflection
TTITLE6=Hunter
TTITLE7=Rotten Fruit
TTITLE8=Transgression
TTITLE9=Enlight
TTITLE10=Travel
TTITLE11=Drift
EXTD=YEAR: 2004
EXTT0=
EXTT1=
EXTT2=
EXTT3=
EXTT4=
EXTT5=
EXTT6=
EXTT7=
EXTT8=
EXTT9=
EXTT10=
EXTT11=
PLAYORDER=
